<?xml version="1.0" encoding="utf-8"?>
<!-- Generator: Adobe Illustrator 19.0.0, SVG Export Plug-In . SVG Version: 6.00 Build 0)  -->
<svg version="1.1" id="Isolation_Mode" xmlns="http://www.w3.org/2000/svg" xmlns:xlink="http://www.w3.org/1999/xlink" x="0px"
	 y="0px" viewBox="253 337 466 120" style="enable-background:new 253 337 466 120;" xml:space="preserve">
<style type="text/css">
	.st0{fill:#4C4B4C;}
	.st1{fill:#AB8432;}
	.st2{fill:#8D9091;}
	.st3{fill:#9E8F6C;}
</style>
<g>
	<path id="Wordmark" class="st0" d="M426.5,381.7h3.6v20.5l-16.8-22.8H405v2.4h3.5l1.1,1.7v25.8H406v2.4h10.4v-2.4h-3.6v-21.7
		l17.9,24.7h2.5v-30.4h3.6v-2.4h-10.3V381.7z M387.6,408.8h-4.1v-12.6h4.1c4.3,0,7.1,2.5,7.1,6.6
		C394.7,407.2,390.9,408.8,387.6,408.8 M383.5,382.2h4c2.1,0,5.6,0.7,5.6,5.5c0,4-2.9,5.8-5.8,5.8h-3.7V382.2z M392.7,394.6
		c3.1-0.9,5.9-3.2,5.9-7.1c0-5-3.7-8.1-9.4-8.1h-14.9v2.4h3.6v27.5h-3.6v2.5H390c6.1,0,10.1-3.5,10.1-8.5
		C400.2,398,396.6,395.4,392.7,394.6 M458.8,381.7h4.1l-7,11.5l-7.4-11.5h3.7v-2.4h-13v2.4h2.9l9.8,15.1v12.4h-3.6v2.5h12.6v-2.5
		h-3.6v-12.6l9.1-14.8h2.6v-2.4h-10.2L458.8,381.7L458.8,381.7z M611.7,408.8H601v-27.1h3.6v-2.4H592v2.4h3.6v27.5H592v2.5h22.4v-7
		h-2.8L611.7,408.8L611.7,408.8z M584.1,408.8h-10.6v-27.1h3.6v-2.4h-12.6v2.4h3.6v27.5h-3.6v2.5h22.4v-7h-2.8L584.1,408.8
		L584.1,408.8z M507.5,402.6l-10.9-23.2h-9v2.4h3.6v27.5h-3.6v2.5h10.3v-2.5h-3.6v-22.4l12,25.8l11.5-25.1v21.8h-3.6v2.5h12.6v-2.5
		h-3.6v-27.5h3.6v-2.4h-8.5L507.5,402.6z M633.8,409.1c-6,0-10.2-5.6-10.2-13.7c0-8,4.2-13.6,10.2-13.6c5.8,0,10,5.6,10,13.6
		C643.9,403.5,639.8,409.1,633.8,409.1 M633.8,378.8c-8.9,0-16.1,7.5-16.1,16.8s7.2,16.8,16.1,16.8c8.8,0,16-7.5,16-16.8
		C649.8,386.2,642.7,378.8,633.8,378.8 M675.5,379.3v2.4h3.6v20.5l-16.7-22.8h-8.4v2.4h3.5l1.2,1.7v25.8h-3.6v2.5h10.3v-2.5h-3.6
		v-21.7l17.9,24.7h2.5v-30.4h3.6v-2.4L675.5,379.3L675.5,379.3z M553.8,408.8h-11.2v-12.3h8.5v3.7h2.8v-10.1H551v3.6h-8.5v-11.7
		h10.7v4.1h2.8v-8.3h-2.8v1.3h-19.7v2.4h3.6v27.5h-3.6v2.5h23v-7h-2.8L553.8,408.8L553.8,408.8z"/>
	<g id="Icon">
		<path class="st1" d="M350,395.2l-30.8-12c-6.6,3.6-12,7.8-16.4,12c4.4,4.2,9.8,8.4,16.4,12L350,395.2z"/>
		<path class="st2" d="M285.9,370.2c0,0,3.2,10.6,14,22.1c4.7-3.6,10.4-7,17.2-9.8L285.9,370.2z"/>
		<path class="st3" d="M285.9,420.3c0,0,3.2-10.6,14-22.1c4.7,3.6,10.4,7,17.2,9.8L285.9,420.3z"/>
	</g>
</g>
</svg>
